<?xml version="1.0" encoding="UTF-8" standalone="no"?>
<!-- Created with Inkscape (http://www.inkscape.org/) -->

<svg
   xmlns:dc="http://purl.org/dc/elements/1.1/"
   xmlns:cc="http://creativecommons.org/ns#"
   xmlns:rdf="http://www.w3.org/1999/02/22-rdf-syntax-ns#"
   xmlns:svg="http://www.w3.org/2000/svg"
   xmlns="http://www.w3.org/2000/svg"
   xmlns:xlink="http://www.w3.org/1999/xlink"
   xmlns:sodipodi="http://sodipodi.sourceforge.net/DTD/sodipodi-0.dtd"
   xmlns:inkscape="http://www.inkscape.org/namespaces/inkscape"
   width="256"
   height="256"
   viewBox="0 0 256 256"
   id="svg2"
   version="1.1"
   inkscape:version="0.92.1 unknown"
   sodipodi:docname="zero-center.svg">
  <defs
     id="defs4">
    <linearGradient
       inkscape:collect="always"
       id="linearGradient6398">
      <stop
         style="stop-color:#ed8818;stop-opacity:1"
         offset="0"
         id="stop6394" />
      <stop
         style="stop-color:#edba18;stop-opacity:1"
         offset="1"
         id="stop6396" />
    </linearGradient>
    <linearGradient
       inkscape:collect="always"
       id="linearGradient6379">
      <stop
         style="stop-color:#6db8ff;stop-opacity:1"
         offset="0"
         id="stop6375" />
      <stop
         style="stop-color:#e3ffff;stop-opacity:1"
         offset="1"
         id="stop6377" />
    </linearGradient>
    <linearGradient
       inkscape:collect="always"
       xlink:href="#linearGradient6379"
       id="linearGradient6381"
       x1="180.35715"
       y1="932.89789"
       x2="141.07143"
       y2="935.2193"
       gradientUnits="userSpaceOnUse"
       gradientTransform="matrix(1.7693178,0,0,1.7693178,-99.74553,-709.13895)" />
    <linearGradient
       inkscape:collect="always"
       xlink:href="#linearGradient6398"
       id="linearGradient6400"
       x1="175.76654"
       y1="882.65656"
       x2="135.10791"
       y2="879.6261"
       gradientUnits="userSpaceOnUse"
       gradientTransform="matrix(1.7693178,0,0,1.7693178,-99.74553,-709.13895)" />
    <filter
       inkscape:collect="always"
       style="color-interpolation-filters:sRGB"
       id="filter6430"
       x="-0.070294344"
       width="1.1405887"
       y="-0.073790488"
       height="1.147581">
      <feGaussianBlur
         inkscape:collect="always"
         stdDeviation="0.18018315"
         id="feGaussianBlur6432" />
    </filter>
    <filter
       inkscape:collect="always"
       style="color-interpolation-filters:sRGB"
       id="filter6454"
       x="-0.070294333"
       width="1.1405887"
       y="-0.0737905"
       height="1.147581">
      <feGaussianBlur
         inkscape:collect="always"
         stdDeviation="0.18018318"
         id="feGaussianBlur6456" />
    </filter>
    <linearGradient
       id="XMLID_1543_-2"
       gradientUnits="userSpaceOnUse"
       x1="203.6655"
       y1="126.3662"
       x2="203.6655"
       y2="68.789101"
       gradientTransform="matrix(0.74931131,0,0,0.74931131,15.982696,954.64341)">
      <stop
         offset="0"
         style="stop-color:#000000"
         id="stop37853" />
      <stop
         offset="1"
         style="stop-color:#000000;stop-opacity:0.5882"
         id="stop37855" />
    </linearGradient>
    <linearGradient
       id="XMLID_1544_-8"
       gradientUnits="userSpaceOnUse"
       x1="187.21001"
       y1="232.748"
       x2="187.21001"
       y2="101.376"
       gradientTransform="matrix(0.74931131,0,0,0.74931131,15.982696,954.64341)">
      <stop
         offset="0"
         style="stop-color:#000000"
         id="stop37859" />
      <stop
         offset="1"
         style="stop-color:#000000;stop-opacity:0.5882"
         id="stop37861" />
    </linearGradient>
    <filter
       inkscape:collect="always"
       style="color-interpolation-filters:sRGB"
       id="filter9149"
       x="-0.052709474"
       width="1.1054189"
       y="-0.044063063"
       height="1.0881261">
      <feGaussianBlur
         inkscape:collect="always"
         stdDeviation="4.2808293"
         id="feGaussianBlur9151" />
    </filter>
  </defs>
  <sodipodi:namedview
     id="base"
     pagecolor="#ffffff"
     bordercolor="#666666"
     borderopacity="1.0"
     inkscape:pageopacity="0.0"
     inkscape:pageshadow="2"
     inkscape:zoom="0.49497475"
     inkscape:cx="-329.8697"
     inkscape:cy="-35.326693"
     inkscape:document-units="px"
     inkscape:current-layer="layer1"
     showgrid="false"
     units="px"
     showguides="true"
     inkscape:guide-bbox="true"
     inkscape:snap-intersection-paths="false"
     inkscape:snap-midpoints="true"
     inkscape:window-width="1920"
     inkscape:window-height="1031"
     inkscape:window-x="1920"
     inkscape:window-y="0"
     inkscape:window-maximized="1"
     inkscape:snap-global="false">
    <sodipodi:guide
       position="148.49242,245.46707"
       orientation="0,1"
       id="guide4147"
       inkscape:locked="false" />
    <sodipodi:guide
       position="130.30968,11.111678"
       orientation="0,1"
       id="guide4153"
       inkscape:locked="false" />
    <sodipodi:guide
       position="10.101525,119.198"
       orientation="1,0"
       id="guide8708"
       inkscape:locked="false" />
    <sodipodi:guide
       position="246.47722,117.1777"
       orientation="1,0"
       id="guide8710"
       inkscape:locked="false" />
  </sodipodi:namedview>
  <metadata
     id="metadata7">
    <rdf:RDF>
      <cc:Work
         rdf:about="">
        <dc:format>image/svg+xml</dc:format>
        <dc:type
           rdf:resource="http://purl.org/dc/dcmitype/StillImage" />
        <dc:title />
      </cc:Work>
    </rdf:RDF>
  </metadata>
  <g
     inkscape:label="Capa 1"
     inkscape:groupmode="layer"
     id="layer1"
     transform="translate(0,-796.36216)">
    <g
       id="g9135"
       style="fill:#000000;filter:url(#filter9149)">
      <path
         style="fill:#000000;fill-rule:evenodd;stroke:#000000;stroke-width:1.76931775px;stroke-linecap:butt;stroke-linejoin:miter;stroke-opacity:1"
         d="M 74.378228,867.98961 C 58.5187,887.05013 50.176044,907.41795 53.672354,929.84471 l 7.566168,52.19822 c 14.311058,22.87507 29.322479,44.44077 62.613448,31.83177 l 75.77204,-55.86417 -23.23177,-81.19396 z"
         id="path8994"
         inkscape:connector-curvature="0"
         sodipodi:nodetypes="ccccccc" />
      <path
         d="m 126.88004,1006.8189 c -0.31156,0.1101 -0.62311,0.2095 -0.93599,0.3129 0.31288,-0.1033 0.62443,-0.2029 0.93599,-0.3129 z"
         id="path8996"
         inkscape:connector-curvature="0"
         style="fill:#000000;stroke-width:1.3257699" />
      <path
         d="m 119.37087,1008.7665 c -0.10085,0.019 -0.2015,0.037 -0.30227,0.054 0.10085,-0.018 0.20151,-0.036 0.30227,-0.054 z"
         id="path8998"
         inkscape:connector-curvature="0"
         style="fill:#000000;stroke-width:1.3257699" />
      <path
         d="m 116.9235,1009.0714 c -0.16048,0.012 -0.32216,0.026 -0.48125,0.037 0.15906,-0.011 0.32084,-0.024 0.48125,-0.037 z"
         id="path9000"
         inkscape:connector-curvature="0"
         style="fill:#000000;stroke-width:1.3257699" />
      <path
         d="m 121.85669,1008.2826 c -0.20283,0.046 -0.40436,0.087 -0.60719,0.1325 0.20283,-0.045 0.40436,-0.086 0.60719,-0.1325 z"
         id="path9002"
         inkscape:connector-curvature="0"
         style="fill:#000000;stroke-width:1.3257699" />
      <path
         d="m 129.81795,1005.6893 c -0.4163,0.1724 -0.83259,0.3448 -1.2502,0.5065 0.41629,-0.1631 0.8339,-0.3367 1.2502,-0.5065 z"
         id="path9004"
         inkscape:connector-curvature="0"
         style="fill:#000000;stroke-width:1.3257699" />
      <path
         d="m 134.76307,1003.3931 c -1.42255,0.7279 -2.85837,1.404 -4.30346,2.0218 1.44642,-0.6151 2.88091,-1.2926 4.30346,-2.0218 z"
         id="path9006"
         inkscape:connector-curvature="0"
         style="fill:#000000;stroke-width:1.3257699" />
      <path
         d="m 137.70761,1001.8009 c -0.93601,0.5316 -1.88128,1.0433 -2.83318,1.5339 0.9519,-0.4906 1.89717,-1.0023 2.83318,-1.5339 z"
         id="path9008"
         inkscape:connector-curvature="0"
         style="fill:#000000;stroke-width:1.3257699" />
      <path
         d="m 139.29056,1000.8861 c -0.44544,0.2638 -0.89488,0.525 -1.34565,0.7822 0.45077,-0.2572 0.89888,-0.5157 1.34565,-0.7822 z"
         id="path9010"
         inkscape:connector-curvature="0"
         style="fill:#000000;stroke-width:1.3257699" />
      <path
         d="m 124.61695,1007.5494 c -0.25455,0.077 -0.5091,0.1552 -0.76498,0.228 0.25588,-0.073 0.51043,-0.1525 0.76498,-0.228 z"
         id="path9012"
         inkscape:connector-curvature="0"
         style="fill:#000000;stroke-width:1.3257699" />
      <path
         d="m 104.74897,1008.4536 c -0.44148,-0.072 -0.879,-0.1458 -1.31252,-0.2267 0.43352,0.078 0.86971,0.1578 1.31252,0.2267 z"
         id="path9014"
         inkscape:connector-curvature="0"
         style="fill:#000000;stroke-width:1.3257699" />
      <path
         d="m 107.95998,1008.8712 c -0.24394,-0.027 -0.49318,-0.045 -0.73316,-0.074 0.2413,0.029 0.48922,0.048 0.73316,0.074 z"
         id="path9016"
         inkscape:connector-curvature="0"
         style="fill:#000000;stroke-width:1.3257699" />
      <path
         d="m 111.20678,1009.1152 c -0.30227,-0.012 -0.60189,-0.03 -0.89887,-0.05 0.29698,0.019 0.5966,0.037 0.89887,0.05 z"
         id="path9018"
         inkscape:connector-curvature="0"
         style="fill:#000000;stroke-width:1.3257699" />
      <path
         d="m 213.4727,896.52281 c -0.73448,-0.42821 -1.58696,-1.54584 -3.05325,-2.62501 -37.12023,-27.10669 -83.38563,-39.29052 -129.640406,-33.94635 -2.646244,0.29035 -5.137359,2.06423 -6.400816,1.94093 -26.430549,17.4299 -43.882983,47.36844 -43.882983,81.39431 0,53.82891 43.636389,97.46531 97.463965,97.46531 53.82095,0 97.45337,-43.6364 97.45337,-97.46531 0.001,-16.94996 -4.32996,-32.88174 -11.93988,-46.76388 z m -78.98938,12.06583 c 8.36828,0 15.14958,6.78662 15.14958,15.1562 0,8.36958 -6.7813,15.15754 -15.14958,15.15754 -8.37621,0 -15.15618,-6.78663 -15.15618,-15.15754 0.001,-8.36958 6.77997,-15.1562 15.15618,-15.1562 z m -80.810966,15.1562 c 0,-8.36427 6.781312,-15.14426 15.150897,-15.14426 8.368254,0 15.149571,6.77999 15.149571,15.14426 0,8.36958 -6.781317,15.15754 -15.149571,15.15754 -8.369585,0 -15.150897,-6.78796 -15.150897,-15.15754 z m 85.714986,77.61056 h 0.001 c -0.0331,0 -0.0663,-0.2267 -0.0994,-0.2015 -0.44546,0.2638 -0.8949,0.3911 -1.34567,0.647 -0.0782,0.045 -0.15782,0.024 -0.23597,0.068 -0.93601,0.5303 -1.88128,1.0102 -2.83318,1.5007 -0.0372,0.019 -0.0756,0.023 -0.11129,0.04 -1.42254,0.7292 -2.85704,1.3987 -4.30345,2.0165 -0.21478,0.091 -0.42691,0.1803 -0.64299,0.2678 -0.4163,0.1711 -0.83259,0.3421 -1.2502,0.5052 -0.5608,0.2174 -1.12426,0.4255 -1.68639,0.6244 -0.31156,0.1086 -0.6231,0.2081 -0.93599,0.3129 -0.44148,0.1419 -0.88429,0.2824 -1.32709,0.4136 -0.25455,0.077 -0.50911,0.1564 -0.76499,0.228 -0.66552,0.187 -1.33105,0.354 -1.99527,0.5065 -0.20284,0.046 -0.40436,0.088 -0.6072,0.1325 -0.6271,0.1325 -1.25285,0.2506 -1.87862,0.3527 -0.10085,0.019 -0.20151,0.037 -0.30227,0.054 -0.71858,0.106 -1.43317,0.1896 -2.14643,0.2505 -0.16048,0.012 -0.32216,0.027 -0.48126,0.037 -0.72652,0.053 -1.45303,0.089 -2.17161,0.089 -1.04073,0 -2.05892,-0.034 -3.06385,-0.083 -0.30227,-0.012 -0.60056,-0.03 -0.89887,-0.05 -0.79414,-0.05 -1.57634,-0.114 -2.34794,-0.1936 -0.24393,-0.026 -0.49185,-0.045 -0.73315,-0.074 -0.84053,-0.095 -1.6625,-0.2134 -2.47786,-0.3434 -0.44281,-0.07 -0.87898,-0.1484 -1.31251,-0.2267 -0.40569,-0.075 -0.80474,-0.1551 -1.20379,-0.236 -29.076796,-5.9381 -40.992815,-32.04646 -40.992815,-32.04646 0,0 53.180595,16.89162 106.070865,0.26382 2.46195,-0.77425 -10.99461,13.21394 -27.92204,25.14584 z"
         id="path9020"
         inkscape:connector-curvature="0"
         style="fill:#000000;fill-opacity:1;stroke-width:1.3257699" />
      <path
         d="m 97.544483,921.1213 c 1.701686,0 3.077417,-1.3128 3.077417,-2.93206 0,-1.61926 -1.376481,-2.92831 -3.077417,-2.92831 -1.698689,0 -3.074425,1.30905 -3.074425,2.92831 0,1.61926 1.375736,2.93206 3.074425,2.93206 z"
         id="path9022"
         inkscape:connector-curvature="0"
         style="fill:#000000;stroke-width:0.74931133;filter:url(#filter6454)"
         transform="matrix(1.7693178,0,0,1.7693178,-99.74553,-709.13895)" />
      <path
         d="m 134.65712,921.1213 c 1.69944,0 3.07742,-1.3128 3.07742,-2.93206 0,-1.61926 -1.37873,-2.92831 -3.07742,-2.92831 -1.69794,0 -3.07442,1.30905 -3.07442,2.92831 0,1.61926 1.37648,2.93206 3.07442,2.93206 z"
         id="path9024"
         inkscape:connector-curvature="0"
         style="fill:#000000;stroke-width:0.74931133;filter:url(#filter6430)"
         transform="matrix(1.7693178,0,0,1.7693178,-99.74553,-709.13895)" />
      <path
         d="m 107.22682,1008.797 c -0.84053,-0.095 -1.66252,-0.2148 -2.47785,-0.3434 0.81402,0.1299 1.63732,0.2479 2.47785,0.3434 z"
         id="path9026"
         inkscape:connector-curvature="0"
         style="fill:#000000;stroke-width:1.3257699" />
      <path
         d="m 107.22682,1008.797 c -0.84053,-0.095 -1.66252,-0.2148 -2.47785,-0.3434 0.81402,0.1299 1.63732,0.2479 2.47785,0.3434 z"
         id="path9028"
         inkscape:connector-curvature="0"
         style="fill:#000000;stroke-width:1.3257699" />
      <path
         d="m 110.30659,1009.0634 c -0.79414,-0.049 -1.57501,-0.1139 -2.34794,-0.1935 0.7716,0.081 1.55512,0.1431 2.34794,0.1935 z"
         id="path9030"
         inkscape:connector-curvature="0"
         style="fill:#000000;stroke-width:1.3257699" />
      <path
         d="m 110.30659,1009.0634 c -0.79414,-0.049 -1.57501,-0.1139 -2.34794,-0.1935 0.7716,0.081 1.55512,0.1431 2.34794,0.1935 z"
         id="path9032"
         inkscape:connector-curvature="0"
         style="fill:#000000;stroke-width:1.3257699" />
      <path
         d="m 123.85197,1007.7774 c -0.66553,0.1856 -1.33106,0.354 -1.99528,0.5052 0.66422,-0.1538 1.32975,-0.3209 1.99528,-0.5052 z"
         id="path9034"
         inkscape:connector-curvature="0"
         style="fill:#000000;stroke-width:1.3257699" />
      <path
         d="m 123.85197,1007.7774 c -0.66553,0.1856 -1.33106,0.354 -1.99528,0.5052 0.66422,-0.1538 1.32975,-0.3209 1.99528,-0.5052 z"
         id="path9036"
         inkscape:connector-curvature="0"
         style="fill:#000000;stroke-width:1.3257699" />
      <path
         d="m 139.39,1000.8291 h -10e-4 c -0.0331,0.021 -0.0649,0.04 -0.0982,0.06 0.0331,-0.021 0.0663,-0.04 0.0994,-0.058 z"
         id="path9038"
         inkscape:connector-curvature="0"
         style="fill:#000000;stroke-width:1.3257699" />
      <path
         d="m 139.39,1000.8291 h -10e-4 c -0.0331,0.021 -0.0649,0.04 -0.0982,0.06 0.0331,-0.021 0.0663,-0.04 0.0994,-0.058 z"
         id="path9040"
         inkscape:connector-curvature="0"
         style="fill:#000000;stroke-width:1.3257699" />
      <path
         d="m 114.26931,1009.1987 c -1.04073,0 -2.05626,-0.034 -3.06386,-0.084 1.00494,0.049 2.02313,0.084 3.06386,0.084 z"
         id="path9042"
         inkscape:connector-curvature="0"
         style="fill:#000000;stroke-width:1.3257699" />
      <path
         d="m 114.26931,1009.1987 c -1.04073,0 -2.05626,-0.034 -3.06386,-0.084 1.00494,0.049 2.02313,0.084 3.06386,0.084 z"
         id="path9044"
         inkscape:connector-curvature="0"
         style="fill:#000000;stroke-width:1.3257699" />
      <path
         d="m 119.06993,1008.8208 c -0.71857,0.106 -1.43316,0.1896 -2.14643,0.2506 0.71327,-0.062 1.42786,-0.1446 2.14643,-0.2506 z"
         id="path9046"
         inkscape:connector-curvature="0"
         style="fill:#000000;stroke-width:1.3257699" />
      <path
         d="m 119.06993,1008.8208 c -0.71857,0.106 -1.43316,0.1896 -2.14643,0.2506 0.71327,-0.062 1.42786,-0.1446 2.14643,-0.2506 z"
         id="path9048"
         inkscape:connector-curvature="0"
         style="fill:#000000;stroke-width:1.3257699" />
      <path
         d="m 121.2495,1008.4138 c -0.6271,0.1325 -1.25285,0.2506 -1.87863,0.3527 0.62578,-0.1009 1.25153,-0.2201 1.87863,-0.3527 z"
         id="path9050"
         inkscape:connector-curvature="0"
         style="fill:#000000;stroke-width:1.3257699" />
      <path
         d="m 121.2495,1008.4138 c -0.6271,0.1325 -1.25285,0.2506 -1.87863,0.3527 0.62578,-0.1009 1.25153,-0.2201 1.87863,-0.3527 z"
         id="path9052"
         inkscape:connector-curvature="0"
         style="fill:#000000;stroke-width:1.3257699" />
      <path
         d="m 137.94491,1001.6683 c -0.0782,0.046 -0.15783,0.089 -0.23598,0.1325 0.0782,-0.043 0.15783,-0.086 0.23598,-0.1325 z"
         id="path9054"
         inkscape:connector-curvature="0"
         style="fill:#000000;stroke-width:1.3257699" />
      <path
         d="m 137.94491,1001.6683 c -0.0782,0.046 -0.15783,0.089 -0.23598,0.1325 0.0782,-0.043 0.15783,-0.086 0.23598,-0.1325 z"
         id="path9056"
         inkscape:connector-curvature="0"
         style="fill:#000000;stroke-width:1.3257699" />
      <path
         d="m 116.44092,1009.1098 c -0.72785,0.053 -1.45304,0.089 -2.17161,0.089 0.7199,0 1.44642,-0.036 2.17161,-0.089 z"
         id="path9058"
         inkscape:connector-curvature="0"
         style="fill:#000000;stroke-width:1.3257699" />
      <path
         d="m 116.44092,1009.1098 c -0.72785,0.053 -1.45304,0.089 -2.17161,0.089 0.7199,0 1.44642,-0.036 2.17161,-0.089 z"
         id="path9060"
         inkscape:connector-curvature="0"
         style="fill:#000000;stroke-width:1.3257699" />
      <path
         d="m 125.94405,1007.1318 c -0.44148,0.1446 -0.88429,0.285 -1.3271,0.4163 0.44281,-0.1313 0.88562,-0.2705 1.3271,-0.4163 z"
         id="path9062"
         inkscape:connector-curvature="0"
         style="fill:#000000;stroke-width:1.3257699" />
      <path
         d="m 125.94405,1007.1318 c -0.44148,0.1446 -0.88429,0.285 -1.3271,0.4163 0.44281,-0.1313 0.88562,-0.2705 1.3271,-0.4163 z"
         id="path9064"
         inkscape:connector-curvature="0"
         style="fill:#000000;stroke-width:1.3257699" />
      <path
         d="m 128.56643,1006.1945 c -0.56213,0.2174 -1.12426,0.4269 -1.68639,0.6244 0.56213,-0.1962 1.12558,-0.407 1.68639,-0.6244 z"
         id="path9066"
         inkscape:connector-curvature="0"
         style="fill:#000000;stroke-width:1.3257699" />
      <path
         d="m 128.56643,1006.1945 c -0.56213,0.2174 -1.12426,0.4269 -1.68639,0.6244 0.56213,-0.1962 1.12558,-0.407 1.68639,-0.6244 z"
         id="path9068"
         inkscape:connector-curvature="0"
         style="fill:#000000;stroke-width:1.3257699" />
      <path
         d="m 130.46094,1005.4149 c -0.21478,0.093 -0.4269,0.1843 -0.64299,0.2731 0.21476,-0.089 0.42689,-0.1789 0.64299,-0.2731 z"
         id="path9070"
         inkscape:connector-curvature="0"
         style="fill:#000000;stroke-width:1.3257699" />
      <path
         d="m 130.46094,1005.4149 c -0.21478,0.093 -0.4269,0.1843 -0.64299,0.2731 0.21476,-0.089 0.42689,-0.1789 0.64299,-0.2731 z"
         id="path9072"
         inkscape:connector-curvature="0"
         style="fill:#000000;stroke-width:1.3257699" />
      <path
         d="m 103.43645,1008.2282 c -0.40569,-0.076 -0.80341,-0.1552 -1.20379,-0.236 0.39772,0.08 0.7981,0.1605 1.20379,0.236 z"
         id="path9074"
         inkscape:connector-curvature="0"
         style="fill:#000000;stroke-width:1.3257699" />
      <path
         d="m 103.43645,1008.2282 c -0.40569,-0.076 -0.80341,-0.1552 -1.20379,-0.236 0.39772,0.08 0.7981,0.1605 1.20379,0.236 z"
         id="path9076"
         inkscape:connector-curvature="0"
         style="fill:#000000;stroke-width:1.3257699" />
      <path
         d="m 134.87576,1003.3348 c -0.0372,0.02 -0.0756,0.038 -0.11129,0.058 0.0357,-0.02 0.0729,-0.038 0.11129,-0.058 z"
         id="path9078"
         inkscape:connector-curvature="0"
         style="fill:#000000;stroke-width:1.3257699" />
      <path
         d="m 134.87576,1003.3348 c -0.0372,0.02 -0.0756,0.038 -0.11129,0.058 0.0357,-0.02 0.0729,-0.038 0.11129,-0.058 z"
         id="path9080"
         inkscape:connector-curvature="0"
         style="fill:#000000;stroke-width:1.3257699" />
      <circle
         style="fill:#000000;stroke-width:1.3257699"
         id="circle9082"
         cx="114.02007"
         cy="832.64062"
         r="22.182781" />
      <path
         style="fill:#000000;fill-opacity:1;stroke-width:1.3257699"
         inkscape:connector-curvature="0"
         id="path9084"
         d="m 215.21873,837.8933 c -48.10689,-28.86202 -72.14972,-36.64562 -126.520856,-25.3275 -4.298151,0.89355 -9.973768,3.94018 -11.461287,6.32126 0,9.7537 -4.652127,27.97109 -3.705526,38.26701 0.07291,0.74906 0.37917,1.05002 0.848492,1.09641 1.263459,0.12333 3.754574,-1.6519 6.400818,-1.94225 46.254779,-5.34151 92.520179,6.84098 129.640409,33.94767 1.46629,1.07785 2.31876,2.19813 3.05324,2.62502 0.72121,0.41763 1.33108,0.17109 2.3002,-1.4464 7.22147,-12.14803 3.26406,-51.26885 -0.55549,-53.54122 z m -101.19601,13.81319 c -5.43962,0 -10.36618,-2.06952 -14.023983,-5.42505 -3.924294,-3.60079 -6.383593,-8.68114 -6.383593,-14.33024 0,-10.91771 9.134566,-19.76459 20.408906,-19.76459 11.26639,0 20.40227,8.84688 20.40227,19.76459 0,3.79038 -1.12161,7.31956 -3.0307,10.32376 -3.59285,5.65309 -10.01885,9.43153 -17.3729,9.43153 z" />
      <path
         style="fill:#000000;stroke-width:1.3257699"
         inkscape:connector-curvature="0"
         id="path9086"
         d="m 119.44379,839.6115 h -6.6063 l 6.6063,-15.80848 v -1.42653 h -10.60616 v 9.28039 h 4.17088 l -4.17088,7.8406 v 4.09132 h 2.8093 c 2.54151,0 5.14532,-0.7716 7.79686,-0.99963 z" />
    </g>
    <path
       style="fill:#000000;fill-rule:evenodd;stroke:#000000;stroke-width:1.76931775px;stroke-linecap:butt;stroke-linejoin:miter;stroke-opacity:1"
       d="M 74.378228,867.98961 C 58.5187,887.05013 50.176044,907.41795 53.672354,929.84471 l 7.566168,52.19822 c 14.311058,22.87507 29.322479,44.44077 62.613448,31.83177 l 75.77204,-55.86417 -23.23177,-81.19396 z"
       id="path6138"
       inkscape:connector-curvature="0"
       sodipodi:nodetypes="ccccccc" />
    <path
       d="m 126.88004,1006.8189 c -0.31156,0.1101 -0.62311,0.2095 -0.93599,0.3129 0.31288,-0.1033 0.62443,-0.2029 0.93599,-0.3129 z"
       id="XMLID_3947_"
       inkscape:connector-curvature="0"
       style="fill:#ffffff;stroke-width:1.3257699" />
    <path
       d="m 119.37087,1008.7665 c -0.10085,0.019 -0.2015,0.037 -0.30227,0.054 0.10085,-0.018 0.20151,-0.036 0.30227,-0.054 z"
       id="XMLID_3946_"
       inkscape:connector-curvature="0"
       style="fill:#ffffff;stroke-width:1.3257699" />
    <path
       d="m 116.9235,1009.0714 c -0.16048,0.012 -0.32216,0.026 -0.48125,0.037 0.15906,-0.011 0.32084,-0.024 0.48125,-0.037 z"
       id="XMLID_3385_"
       inkscape:connector-curvature="0"
       style="fill:#ffffff;stroke-width:1.3257699" />
    <path
       d="m 121.85669,1008.2826 c -0.20283,0.046 -0.40436,0.087 -0.60719,0.1325 0.20283,-0.045 0.40436,-0.086 0.60719,-0.1325 z"
       id="XMLID_2801_"
       inkscape:connector-curvature="0"
       style="fill:#ffffff;stroke-width:1.3257699" />
    <path
       d="m 129.81795,1005.6893 c -0.4163,0.1724 -0.83259,0.3448 -1.2502,0.5065 0.41629,-0.1631 0.8339,-0.3367 1.2502,-0.5065 z"
       id="XMLID_2800_"
       inkscape:connector-curvature="0"
       style="fill:#ffffff;stroke-width:1.3257699" />
    <path
       d="m 134.76307,1003.3931 c -1.42255,0.7279 -2.85837,1.404 -4.30346,2.0218 1.44642,-0.6151 2.88091,-1.2926 4.30346,-2.0218 z"
       id="XMLID_2799_"
       inkscape:connector-curvature="0"
       style="fill:#ffffff;stroke-width:1.3257699" />
    <path
       d="m 137.70761,1001.8009 c -0.93601,0.5316 -1.88128,1.0433 -2.83318,1.5339 0.9519,-0.4906 1.89717,-1.0023 2.83318,-1.5339 z"
       id="XMLID_2798_"
       inkscape:connector-curvature="0"
       style="fill:#ffffff;stroke-width:1.3257699" />
    <path
       d="m 139.29056,1000.8861 c -0.44544,0.2638 -0.89488,0.525 -1.34565,0.7822 0.45077,-0.2572 0.89888,-0.5157 1.34565,-0.7822 z"
       id="XMLID_2796_"
       inkscape:connector-curvature="0"
       style="fill:#ffffff;stroke-width:1.3257699" />
    <path
       d="m 124.61695,1007.5494 c -0.25455,0.077 -0.5091,0.1552 -0.76498,0.228 0.25588,-0.073 0.51043,-0.1525 0.76498,-0.228 z"
       id="XMLID_2795_"
       inkscape:connector-curvature="0"
       style="fill:#ffffff;stroke-width:1.3257699" />
    <path
       d="m 104.74897,1008.4536 c -0.44148,-0.072 -0.879,-0.1458 -1.31252,-0.2267 0.43352,0.078 0.86971,0.1578 1.31252,0.2267 z"
       id="XMLID_2794_"
       inkscape:connector-curvature="0"
       style="fill:#ffffff;stroke-width:1.3257699" />
    <path
       d="m 107.95998,1008.8712 c -0.24394,-0.027 -0.49318,-0.045 -0.73316,-0.074 0.2413,0.029 0.48922,0.048 0.73316,0.074 z"
       id="XMLID_2789_"
       inkscape:connector-curvature="0"
       style="fill:#ffffff;stroke-width:1.3257699" />
    <path
       d="m 111.20678,1009.1152 c -0.30227,-0.012 -0.60189,-0.03 -0.89887,-0.05 0.29698,0.019 0.5966,0.037 0.89887,0.05 z"
       id="XMLID_2729_"
       inkscape:connector-curvature="0"
       style="fill:#ffffff;stroke-width:1.3257699" />
    <path
       d="m 213.4727,896.52281 c -0.73448,-0.42821 -1.58696,-1.54584 -3.05325,-2.62501 -37.12023,-27.10669 -83.38563,-39.29052 -129.640406,-33.94635 -2.646244,0.29035 -5.137359,2.06423 -6.400816,1.94093 -26.430549,17.4299 -43.882983,47.36844 -43.882983,81.39431 0,53.82891 43.636389,97.46531 97.463965,97.46531 53.82095,0 97.45337,-43.6364 97.45337,-97.46531 0.001,-16.94996 -4.32996,-32.88174 -11.93988,-46.76388 z m -78.98938,12.06583 c 8.36828,0 15.14958,6.78662 15.14958,15.1562 0,8.36958 -6.7813,15.15754 -15.14958,15.15754 -8.37621,0 -15.15618,-6.78663 -15.15618,-15.15754 0.001,-8.36958 6.77997,-15.1562 15.15618,-15.1562 z m -80.810966,15.1562 c 0,-8.36427 6.781312,-15.14426 15.150897,-15.14426 8.368254,0 15.149571,6.77999 15.149571,15.14426 0,8.36958 -6.781317,15.15754 -15.149571,15.15754 -8.369585,0 -15.150897,-6.78796 -15.150897,-15.15754 z m 85.714986,77.61056 h 0.001 c -0.0331,0 -0.0663,-0.2267 -0.0994,-0.2015 -0.44546,0.2638 -0.8949,0.3911 -1.34567,0.647 -0.0782,0.045 -0.15782,0.024 -0.23597,0.068 -0.93601,0.5303 -1.88128,1.0102 -2.83318,1.5007 -0.0372,0.019 -0.0756,0.023 -0.11129,0.04 -1.42254,0.7292 -2.85704,1.3987 -4.30345,2.0165 -0.21478,0.091 -0.42691,0.1803 -0.64299,0.2678 -0.4163,0.1711 -0.83259,0.3421 -1.2502,0.5052 -0.5608,0.2174 -1.12426,0.4255 -1.68639,0.6244 -0.31156,0.1086 -0.6231,0.2081 -0.93599,0.3129 -0.44148,0.1419 -0.88429,0.2824 -1.32709,0.4136 -0.25455,0.077 -0.50911,0.1564 -0.76499,0.228 -0.66552,0.187 -1.33105,0.354 -1.99527,0.5065 -0.20284,0.046 -0.40436,0.088 -0.6072,0.1325 -0.6271,0.1325 -1.25285,0.2506 -1.87862,0.3527 -0.10085,0.019 -0.20151,0.037 -0.30227,0.054 -0.71858,0.106 -1.43317,0.1896 -2.14643,0.2505 -0.16048,0.012 -0.32216,0.027 -0.48126,0.037 -0.72652,0.053 -1.45303,0.089 -2.17161,0.089 -1.04073,0 -2.05892,-0.034 -3.06385,-0.083 -0.30227,-0.012 -0.60056,-0.03 -0.89887,-0.05 -0.79414,-0.05 -1.57634,-0.114 -2.34794,-0.1936 -0.24393,-0.026 -0.49185,-0.045 -0.73315,-0.074 -0.84053,-0.095 -1.6625,-0.2134 -2.47786,-0.3434 -0.44281,-0.07 -0.87898,-0.1484 -1.31251,-0.2267 -0.40569,-0.075 -0.80474,-0.1551 -1.20379,-0.236 -29.076796,-5.9381 -40.992815,-32.04646 -40.992815,-32.04646 0,0 53.180595,16.89162 106.070865,0.26382 2.46195,-0.77425 -10.99461,13.21394 -27.92204,25.14584 z"
       id="XMLID_2723_"
       inkscape:connector-curvature="0"
       style="fill:url(#linearGradient6381);fill-opacity:1;stroke-width:1.3257699" />
    <path
       d="m 97.544483,921.1213 c 1.701686,0 3.077417,-1.3128 3.077417,-2.93206 0,-1.61926 -1.376481,-2.92831 -3.077417,-2.92831 -1.698689,0 -3.074425,1.30905 -3.074425,2.92831 0,1.61926 1.375736,2.93206 3.074425,2.93206 z"
       id="XMLID_2722_"
       inkscape:connector-curvature="0"
       style="fill:#ffffff;stroke-width:0.74931133;filter:url(#filter6454)"
       transform="matrix(1.7693178,0,0,1.7693178,-99.74553,-709.13895)" />
    <path
       d="m 134.65712,921.1213 c 1.69944,0 3.07742,-1.3128 3.07742,-2.93206 0,-1.61926 -1.37873,-2.92831 -3.07742,-2.92831 -1.69794,0 -3.07442,1.30905 -3.07442,2.92831 0,1.61926 1.37648,2.93206 3.07442,2.93206 z"
       id="XMLID_2721_"
       inkscape:connector-curvature="0"
       style="fill:#ffffff;stroke-width:0.74931133;filter:url(#filter6430)"
       transform="matrix(1.7693178,0,0,1.7693178,-99.74553,-709.13895)" />
    <path
       d="m 107.22682,1008.797 c -0.84053,-0.095 -1.66252,-0.2148 -2.47785,-0.3434 0.81402,0.1299 1.63732,0.2479 2.47785,0.3434 z"
       id="XMLID_2719_"
       inkscape:connector-curvature="0"
       style="fill:#ffffff;stroke-width:1.3257699" />
    <path
       d="m 107.22682,1008.797 c -0.84053,-0.095 -1.66252,-0.2148 -2.47785,-0.3434 0.81402,0.1299 1.63732,0.2479 2.47785,0.3434 z"
       id="XMLID_2718_"
       inkscape:connector-curvature="0"
       style="fill:#ffffff;stroke-width:1.3257699" />
    <path
       d="m 110.30659,1009.0634 c -0.79414,-0.049 -1.57501,-0.1139 -2.34794,-0.1935 0.7716,0.081 1.55512,0.1431 2.34794,0.1935 z"
       id="XMLID_2716_"
       inkscape:connector-curvature="0"
       style="fill:#ffffff;stroke-width:1.3257699" />
    <path
       d="m 110.30659,1009.0634 c -0.79414,-0.049 -1.57501,-0.1139 -2.34794,-0.1935 0.7716,0.081 1.55512,0.1431 2.34794,0.1935 z"
       id="XMLID_2715_"
       inkscape:connector-curvature="0"
       style="fill:#ffffff;stroke-width:1.3257699" />
    <path
       d="m 123.85197,1007.7774 c -0.66553,0.1856 -1.33106,0.354 -1.99528,0.5052 0.66422,-0.1538 1.32975,-0.3209 1.99528,-0.5052 z"
       id="XMLID_2714_"
       inkscape:connector-curvature="0"
       style="fill:#ffffff;stroke-width:1.3257699" />
    <path
       d="m 123.85197,1007.7774 c -0.66553,0.1856 -1.33106,0.354 -1.99528,0.5052 0.66422,-0.1538 1.32975,-0.3209 1.99528,-0.5052 z"
       id="XMLID_2713_"
       inkscape:connector-curvature="0"
       style="fill:#ffffff;stroke-width:1.3257699" />
    <path
       d="m 139.39,1000.8291 h -10e-4 c -0.0331,0.021 -0.0649,0.04 -0.0982,0.06 0.0331,-0.021 0.0663,-0.04 0.0994,-0.058 z"
       id="XMLID_2712_"
       inkscape:connector-curvature="0"
       style="fill:#ffffff;stroke-width:1.3257699" />
    <path
       d="m 139.39,1000.8291 h -10e-4 c -0.0331,0.021 -0.0649,0.04 -0.0982,0.06 0.0331,-0.021 0.0663,-0.04 0.0994,-0.058 z"
       id="XMLID_2711_"
       inkscape:connector-curvature="0"
       style="fill:#ffffff;stroke-width:1.3257699" />
    <path
       d="m 114.26931,1009.1987 c -1.04073,0 -2.05626,-0.034 -3.06386,-0.084 1.00494,0.049 2.02313,0.084 3.06386,0.084 z"
       id="XMLID_2709_"
       inkscape:connector-curvature="0"
       style="fill:#ffffff;stroke-width:1.3257699" />
    <path
       d="m 114.26931,1009.1987 c -1.04073,0 -2.05626,-0.034 -3.06386,-0.084 1.00494,0.049 2.02313,0.084 3.06386,0.084 z"
       id="XMLID_2708_"
       inkscape:connector-curvature="0"
       style="fill:#ffffff;stroke-width:1.3257699" />
    <path
       d="m 119.06993,1008.8208 c -0.71857,0.106 -1.43316,0.1896 -2.14643,0.2506 0.71327,-0.062 1.42786,-0.1446 2.14643,-0.2506 z"
       id="XMLID_2707_"
       inkscape:connector-curvature="0"
       style="fill:#ffffff;stroke-width:1.3257699" />
    <path
       d="m 119.06993,1008.8208 c -0.71857,0.106 -1.43316,0.1896 -2.14643,0.2506 0.71327,-0.062 1.42786,-0.1446 2.14643,-0.2506 z"
       id="XMLID_2706_"
       inkscape:connector-curvature="0"
       style="fill:#ffffff;stroke-width:1.3257699" />
    <path
       d="m 121.2495,1008.4138 c -0.6271,0.1325 -1.25285,0.2506 -1.87863,0.3527 0.62578,-0.1009 1.25153,-0.2201 1.87863,-0.3527 z"
       id="XMLID_2705_"
       inkscape:connector-curvature="0"
       style="fill:#ffffff;stroke-width:1.3257699" />
    <path
       d="m 121.2495,1008.4138 c -0.6271,0.1325 -1.25285,0.2506 -1.87863,0.3527 0.62578,-0.1009 1.25153,-0.2201 1.87863,-0.3527 z"
       id="XMLID_2704_"
       inkscape:connector-curvature="0"
       style="fill:#ffffff;stroke-width:1.3257699" />
    <path
       d="m 137.94491,1001.6683 c -0.0782,0.046 -0.15783,0.089 -0.23598,0.1325 0.0782,-0.043 0.15783,-0.086 0.23598,-0.1325 z"
       id="XMLID_2703_"
       inkscape:connector-curvature="0"
       style="fill:#ffffff;stroke-width:1.3257699" />
    <path
       d="m 137.94491,1001.6683 c -0.0782,0.046 -0.15783,0.089 -0.23598,0.1325 0.0782,-0.043 0.15783,-0.086 0.23598,-0.1325 z"
       id="XMLID_2702_"
       inkscape:connector-curvature="0"
       style="fill:#ffffff;stroke-width:1.3257699" />
    <path
       d="m 116.44092,1009.1098 c -0.72785,0.053 -1.45304,0.089 -2.17161,0.089 0.7199,0 1.44642,-0.036 2.17161,-0.089 z"
       id="XMLID_2701_"
       inkscape:connector-curvature="0"
       style="fill:#ffffff;stroke-width:1.3257699" />
    <path
       d="m 116.44092,1009.1098 c -0.72785,0.053 -1.45304,0.089 -2.17161,0.089 0.7199,0 1.44642,-0.036 2.17161,-0.089 z"
       id="XMLID_2700_"
       inkscape:connector-curvature="0"
       style="fill:#ffffff;stroke-width:1.3257699" />
    <path
       d="m 125.94405,1007.1318 c -0.44148,0.1446 -0.88429,0.285 -1.3271,0.4163 0.44281,-0.1313 0.88562,-0.2705 1.3271,-0.4163 z"
       id="XMLID_2699_"
       inkscape:connector-curvature="0"
       style="fill:#ffffff;stroke-width:1.3257699" />
    <path
       d="m 125.94405,1007.1318 c -0.44148,0.1446 -0.88429,0.285 -1.3271,0.4163 0.44281,-0.1313 0.88562,-0.2705 1.3271,-0.4163 z"
       id="XMLID_2698_"
       inkscape:connector-curvature="0"
       style="fill:#ffffff;stroke-width:1.3257699" />
    <path
       d="m 128.56643,1006.1945 c -0.56213,0.2174 -1.12426,0.4269 -1.68639,0.6244 0.56213,-0.1962 1.12558,-0.407 1.68639,-0.6244 z"
       id="XMLID_2697_"
       inkscape:connector-curvature="0"
       style="fill:#ffffff;stroke-width:1.3257699" />
    <path
       d="m 128.56643,1006.1945 c -0.56213,0.2174 -1.12426,0.4269 -1.68639,0.6244 0.56213,-0.1962 1.12558,-0.407 1.68639,-0.6244 z"
       id="XMLID_2696_"
       inkscape:connector-curvature="0"
       style="fill:#ffffff;stroke-width:1.3257699" />
    <path
       d="m 130.46094,1005.4149 c -0.21478,0.093 -0.4269,0.1843 -0.64299,0.2731 0.21476,-0.089 0.42689,-0.1789 0.64299,-0.2731 z"
       id="XMLID_2695_"
       inkscape:connector-curvature="0"
       style="fill:#ffffff;stroke-width:1.3257699" />
    <path
       d="m 130.46094,1005.4149 c -0.21478,0.093 -0.4269,0.1843 -0.64299,0.2731 0.21476,-0.089 0.42689,-0.1789 0.64299,-0.2731 z"
       id="XMLID_2694_"
       inkscape:connector-curvature="0"
       style="fill:#ffffff;stroke-width:1.3257699" />
    <path
       d="m 103.43645,1008.2282 c -0.40569,-0.076 -0.80341,-0.1552 -1.20379,-0.236 0.39772,0.08 0.7981,0.1605 1.20379,0.236 z"
       id="XMLID_2693_"
       inkscape:connector-curvature="0"
       style="fill:#ffffff;stroke-width:1.3257699" />
    <path
       d="m 103.43645,1008.2282 c -0.40569,-0.076 -0.80341,-0.1552 -1.20379,-0.236 0.39772,0.08 0.7981,0.1605 1.20379,0.236 z"
       id="XMLID_2674_"
       inkscape:connector-curvature="0"
       style="fill:#ffffff;stroke-width:1.3257699" />
    <path
       d="m 134.87576,1003.3348 c -0.0372,0.02 -0.0756,0.038 -0.11129,0.058 0.0357,-0.02 0.0729,-0.038 0.11129,-0.058 z"
       id="XMLID_2672_"
       inkscape:connector-curvature="0"
       style="fill:#ffffff;stroke-width:1.3257699" />
    <path
       d="m 134.87576,1003.3348 c -0.0372,0.02 -0.0756,0.038 -0.11129,0.058 0.0357,-0.02 0.0729,-0.038 0.11129,-0.058 z"
       id="XMLID_2658_"
       inkscape:connector-curvature="0"
       style="fill:#ffffff;stroke-width:1.3257699" />
    <circle
       style="fill:#ffffff;stroke-width:1.3257699"
       id="XMLID_3722_"
       cx="114.02007"
       cy="832.64062"
       r="22.182781" />
    <path
       style="fill:url(#linearGradient6400);fill-opacity:1;stroke-width:1.3257699"
       inkscape:connector-curvature="0"
       id="XMLID_3949_"
       d="m 215.21873,837.8933 c -48.10689,-28.86202 -72.14972,-36.64562 -126.520856,-25.3275 -4.298151,0.89355 -9.973768,3.94018 -11.461287,6.32126 0,9.7537 -4.652127,27.97109 -3.705526,38.26701 0.07291,0.74906 0.37917,1.05002 0.848492,1.09641 1.263459,0.12333 3.754574,-1.6519 6.400818,-1.94225 46.254779,-5.34151 92.520179,6.84098 129.640409,33.94767 1.46629,1.07785 2.31876,2.19813 3.05324,2.62502 0.72121,0.41763 1.33108,0.17109 2.3002,-1.4464 7.22147,-12.14803 3.26406,-51.26885 -0.55549,-53.54122 z m -101.19601,13.81319 c -5.43962,0 -10.36618,-2.06952 -14.023983,-5.42505 -3.924294,-3.60079 -6.383593,-8.68114 -6.383593,-14.33024 0,-10.91771 9.134566,-19.76459 20.408906,-19.76459 11.26639,0 20.40227,8.84688 20.40227,19.76459 0,3.79038 -1.12161,7.31956 -3.0307,10.32376 -3.59285,5.65309 -10.01885,9.43153 -17.3729,9.43153 z" />
    <path
       style="fill:#636363;stroke-width:1.3257699"
       inkscape:connector-curvature="0"
       id="XMLID_2299_"
       d="m 119.44379,839.6115 h -6.6063 l 6.6063,-15.80848 v -1.42653 h -10.60616 v 9.28039 h 4.17088 l -4.17088,7.8406 v 4.09132 h 2.8093 c 2.54151,0 5.14532,-0.7716 7.79686,-0.99963 z" />
    <g
       style="display:none"
       id="Capa_2-73"
       display="none"
       transform="matrix(0.74931131,0,0,0.74931131,15.982696,814.64341)" />
    <g
       style="display:none"
       id="Capa_3-613"
       display="none"
       transform="matrix(0.74931131,0,0,0.74931131,15.982696,814.64341)">
      <g
         style="display:inline"
         id="XMLID_2945_"
         display="inline">
        <g
           id="XMLID_3136_">
          <path
             style="fill:#d60523"
             inkscape:connector-curvature="0"
             id="XMLID_3043_"
             d="m 110.879,357.801 c 73.276,-8.881 136.05,-60.027 161.497,-128.996 13.122,-35.564 16.601,-74.756 9.597,-112.031 C 278.431,97.924 272.018,79.37 261.807,63.06 252.085,47.53 238.898,34.657 223.737,24.45 191.469,2.725 150.471,-10.378 111.577,-10.844 75.617,-11.275 41.503,1.336 15.943,26.848 c -22.862,22.82 -37.784,53.452 -42.481,85.35 -4.851,32.944 2.111,66.567 17.285,96.021 15.789,30.645 40.086,56.768 68.896,75.59 30.288,19.788 68.276,33.123 104.712,26.231 8.95,-1.692 17.504,-4.746 25.56,-8.979 1.71,-0.898 0.195,-3.488 -1.514,-2.59 -33.977,17.853 -74.898,10.373 -107.877,-6.098 C 50.44,277.348 24.111,254.307 5.164,226.533 -13.259,199.529 -24.938,167.383 -25.134,134.489 -25.323,102.844 -14.842,71.299 3.733,45.731 23.232,18.889 51.694,0.034 84.507,-5.745 c 38.827,-6.839 80.091,3.007 115.142,19.925 16.395,7.914 31.876,18.016 44.566,31.162 13.22,13.695 22.638,30.545 28.71,48.515 11.815,34.964 12.394,73.78 3.959,109.554 -16.562,70.25 -70.277,127.755 -140.386,146.469 -8.414,2.246 -16.974,3.875 -25.619,4.922 -1.892,0.228 -1.915,3.231 0,2.999 z" />
        </g>
      </g>
    </g>
  </g>
</svg>
